# Blender 3.4.1
# www.blender.org
mtllib handsa.mtl
o Куб
v 0.234746 -0.262563 -0.303102
v 0.234746 -0.051793 -0.234191
v 0.034874 -0.262735 -0.302575
v 0.034874 -0.051965 -0.233664
v 0.234025 -0.181839 -0.550002
v 0.234025 0.028931 -0.481091
v 0.034154 -0.182011 -0.549475
v 0.034154 0.028759 -0.480564
v 0.134810 -0.262649 -0.302839
v 0.234746 -0.157178 -0.268647
v 0.134810 -0.051879 -0.233928
v 0.034874 -0.157350 -0.268120
v 0.034514 -0.222373 -0.426025
v 0.034514 -0.011603 -0.357114
v 0.034154 -0.076626 -0.515020
v 0.134089 -0.181925 -0.549739
v 0.134089 0.028845 -0.480828
v 0.234025 -0.076454 -0.515547
v 0.234385 -0.222201 -0.426552
v 0.234385 -0.011431 -0.357641
v 0.134450 -0.011517 -0.357378
v 0.134450 -0.222287 -0.426289
v 0.234385 -0.116816 -0.392097
v 0.134089 -0.076540 -0.515283
v 0.034514 -0.116988 -0.391570
v 0.134810 -0.157264 -0.268383
v 0.231722 -0.176677 -0.548308
v 0.230408 -0.029514 -0.998417
v 0.231722 0.023573 -0.482837
v 0.230408 0.075265 -0.948050
v 0.040297 -0.176842 -0.547803
v 0.038983 -0.029679 -0.997912
v 0.040297 0.023408 -0.482332
v 0.038983 0.075100 -0.947546
vn 0.0028 -0.3108 0.9505
vn -1.0000 -0.0009 0.0026
vn -0.0028 0.3108 -0.9505
vn 1.0000 0.0009 -0.0026
vn -0.0000 -0.9505 -0.3108
vn -0.0000 0.9505 0.3108
vn 1.0000 0.0010 -0.0027
vn -0.0006 0.9939 0.1104
vn -1.0000 -0.0010 0.0027
vn -0.0028 0.4332 -0.9013
vt 0.125000 0.750000
vt 0.375000 1.000000
vt 0.375000 0.000000
vt 0.625000 1.000000
vt 0.875000 0.750000
vt 0.625000 0.000000
vt 0.125000 0.500000
vt 0.375000 0.250000
vt 0.875000 0.500000
vt 0.625000 0.250000
vt 0.375000 0.750000
vt 0.625000 0.750000
vt 0.375000 0.500000
vt 0.625000 0.500000
vt 0.125000 0.625000
vt 0.375000 0.125000
vt 0.500000 1.000000
vt 0.500000 0.000000
vt 0.875000 0.625000
vt 0.625000 0.125000
vt 0.500000 0.250000
vt 0.250000 0.500000
vt 0.375000 0.375000
vt 0.750000 0.500000
vt 0.625000 0.375000
vt 0.500000 0.500000
vt 0.375000 0.625000
vt 0.625000 0.625000
vt 0.500000 0.750000
vt 0.250000 0.750000
vt 0.375000 0.875000
vt 0.750000 0.750000
vt 0.625000 0.875000
vt 0.750000 0.625000
vt 0.250000 0.625000
vt 0.500000 0.875000
vt 0.500000 0.625000
vt 0.500000 0.375000
vt 0.500000 0.125000
vt 0.375000 0.000000
vt 0.375000 1.000000
vt 0.125000 0.750000
vt 0.625000 0.000000
vt 0.625000 1.000000
vt 0.875000 0.750000
vt 0.375000 0.250000
vt 0.125000 0.500000
vt 0.625000 0.250000
vt 0.875000 0.500000
vt 0.375000 0.750000
vt 0.625000 0.750000
vt 0.375000 0.500000
vt 0.625000 0.500000
s 0
usemtl Материал.006
f 26/39/1 11/20/1 4/10/1 12/21/1
f 25/38/2 14/25/2 8/14/2 15/26/2
f 24/37/3 17/28/3 6/12/3 18/29/3
f 23/36/4 20/33/4 2/4/4 10/17/4
f 22/35/5 16/27/5 5/11/5 19/30/5
f 21/34/6 11/19/6 2/5/6 20/32/6
f 17/28/6 21/34/6 20/32/6 6/12/6
f 8/14/6 14/24/6 21/34/6 17/28/6
f 14/24/6 4/9/6 11/19/6 21/34/6
f 9/15/5 22/35/5 19/30/5 1/1/5
f 3/7/5 13/22/5 22/35/5 9/15/5
f 13/22/5 7/13/5 16/27/5 22/35/5
f 19/31/4 23/36/4 10/17/4 1/2/4
f 5/11/4 18/29/4 23/36/4 19/31/4
f 18/29/4 6/12/4 20/33/4 23/36/4
f 16/27/3 24/37/3 18/29/3 5/11/3
f 7/13/3 15/26/3 24/37/3 16/27/3
f 15/26/3 8/14/3 17/28/3 24/37/3
f 13/23/2 25/38/2 15/26/2 7/13/2
f 3/8/2 12/21/2 25/38/2 13/23/2
f 12/21/2 4/10/2 14/25/2 25/38/2
f 9/16/1 26/39/1 12/21/1 3/8/1
f 1/3/1 10/18/1 26/39/1 9/16/1
f 10/18/1 2/6/1 11/20/1 26/39/1
f 29/47/1 33/52/1 31/50/1 27/42/1
usemtl Материал.007
f 27/40/7 28/43/7 30/48/7 29/46/7
f 33/52/9 34/53/9 32/51/9 31/50/9
f 31/50/5 32/51/5 28/44/5 27/41/5
f 34/53/10 30/49/10 28/45/10 32/51/10
usemtl Материал.008
f 29/46/8 30/48/8 34/53/8 33/52/8
