# Blender 3.4.1
# www.blender.org
mtllib hand_005.mtl
o Куб
v 0.234746 -0.211167 -0.340908
v 0.234746 -0.013994 -0.239441
v 0.034874 -0.211421 -0.340415
v 0.034874 -0.014248 -0.238948
v 0.234025 -0.092306 -0.571880
v 0.234025 0.104867 -0.470413
v 0.034154 -0.092560 -0.571387
v 0.034154 0.104613 -0.469920
v 0.134810 -0.211294 -0.340662
v 0.234746 -0.112581 -0.290175
v 0.134810 -0.014121 -0.239195
v 0.034874 -0.112834 -0.289682
v 0.034514 -0.151990 -0.455901
v 0.034514 0.045183 -0.354434
v 0.034154 0.006027 -0.520654
v 0.134089 -0.092433 -0.571634
v 0.134089 0.104740 -0.470167
v 0.234025 0.006280 -0.521147
v 0.234385 -0.151737 -0.456394
v 0.234385 0.045436 -0.354927
v 0.134450 0.045310 -0.354681
v 0.134450 -0.151863 -0.456148
v 0.234385 -0.053150 -0.405661
v 0.134089 0.006154 -0.520900
v 0.034514 -0.053404 -0.405168
v 0.134810 -0.112707 -0.289928
v 0.231722 -0.087478 -0.569389
v 0.230408 0.129210 -0.990461
v 0.231722 0.099853 -0.472987
v 0.230408 0.224675 -0.924113
v 0.040297 -0.087721 -0.568917
v 0.038983 0.128967 -0.989988
v 0.040297 0.099610 -0.472514
v 0.038983 0.224432 -0.923642
vn 0.0028 -0.4576 0.8892
vn -1.0000 -0.0013 0.0025
vn -0.0028 0.4576 -0.8892
vn 1.0000 0.0013 -0.0025
vn -0.0000 -0.8892 -0.4576
vn -0.0000 0.8892 0.4576
vn 1.0000 0.0014 -0.0025
vn -1.0000 -0.0014 0.0025
vn -0.0027 0.5707 -0.8212
vn -0.0006 0.9638 0.2667
vt 0.125000 0.750000
vt 0.375000 1.000000
vt 0.375000 0.000000
vt 0.625000 1.000000
vt 0.875000 0.750000
vt 0.625000 0.000000
vt 0.125000 0.500000
vt 0.375000 0.250000
vt 0.875000 0.500000
vt 0.625000 0.250000
vt 0.375000 0.750000
vt 0.625000 0.750000
vt 0.375000 0.500000
vt 0.625000 0.500000
vt 0.125000 0.625000
vt 0.375000 0.125000
vt 0.500000 1.000000
vt 0.500000 0.000000
vt 0.875000 0.625000
vt 0.625000 0.125000
vt 0.500000 0.250000
vt 0.250000 0.500000
vt 0.375000 0.375000
vt 0.750000 0.500000
vt 0.625000 0.375000
vt 0.500000 0.500000
vt 0.375000 0.625000
vt 0.625000 0.625000
vt 0.500000 0.750000
vt 0.250000 0.750000
vt 0.375000 0.875000
vt 0.750000 0.750000
vt 0.625000 0.875000
vt 0.750000 0.625000
vt 0.250000 0.625000
vt 0.500000 0.875000
vt 0.500000 0.625000
vt 0.500000 0.375000
vt 0.500000 0.125000
vt 0.125000 0.750000
vt 0.375000 0.000000
vt 0.375000 1.000000
vt 0.625000 0.000000
vt 0.625000 1.000000
vt 0.875000 0.750000
vt 0.125000 0.500000
vt 0.375000 0.250000
vt 0.875000 0.500000
vt 0.625000 0.250000
vt 0.375000 0.750000
vt 0.625000 0.750000
vt 0.375000 0.500000
vt 0.625000 0.500000
s 0
usemtl Материал.006
f 26/39/1 11/20/1 4/10/1 12/21/1
f 25/38/2 14/25/2 8/14/2 15/26/2
f 24/37/3 17/28/3 6/12/3 18/29/3
f 23/36/4 20/33/4 2/4/4 10/17/4
f 22/35/5 16/27/5 5/11/5 19/30/5
f 21/34/6 11/19/6 2/5/6 20/32/6
f 17/28/6 21/34/6 20/32/6 6/12/6
f 8/14/6 14/24/6 21/34/6 17/28/6
f 14/24/6 4/9/6 11/19/6 21/34/6
f 9/15/5 22/35/5 19/30/5 1/1/5
f 3/7/5 13/22/5 22/35/5 9/15/5
f 13/22/5 7/13/5 16/27/5 22/35/5
f 19/31/4 23/36/4 10/17/4 1/2/4
f 5/11/4 18/29/4 23/36/4 19/31/4
f 18/29/4 6/12/4 20/33/4 23/36/4
f 16/27/3 24/37/3 18/29/3 5/11/3
f 7/13/3 15/26/3 24/37/3 16/27/3
f 15/26/3 8/14/3 17/28/3 24/37/3
f 13/23/2 25/38/2 15/26/2 7/13/2
f 3/8/2 12/21/2 25/38/2 13/23/2
f 12/21/2 4/10/2 14/25/2 25/38/2
f 9/16/1 26/39/1 12/21/1 3/8/1
f 1/3/1 10/18/1 26/39/1 9/16/1
f 10/18/1 2/6/1 11/20/1 26/39/1
f 29/46/1 33/52/1 31/50/1 27/40/1
usemtl Материал.007
f 27/41/7 28/43/7 30/49/7 29/47/7
f 33/52/8 34/53/8 32/51/8 31/50/8
f 31/50/5 32/51/5 28/44/5 27/42/5
f 34/53/9 30/48/9 28/45/9 32/51/9
usemtl Материал.008
f 29/47/10 30/49/10 34/53/10 33/52/10
