# Blender 3.4.1
# www.blender.org
mtllib hand_002.mtl
o Куб
v 0.234746 -0.166101 -0.364994
v 0.234746 0.016568 -0.239277
v 0.034874 -0.166415 -0.364537
v 0.034874 0.016254 -0.238820
v 0.234025 -0.018834 -0.578976
v 0.234025 0.163835 -0.453259
v 0.034154 -0.019148 -0.578519
v 0.034154 0.163521 -0.452802
v 0.134810 -0.166258 -0.364766
v 0.234746 -0.074767 -0.302136
v 0.134810 0.016411 -0.239049
v 0.034874 -0.075081 -0.301679
v 0.034514 -0.092782 -0.471528
v 0.034514 0.089887 -0.345811
v 0.034154 0.072187 -0.515661
v 0.134089 -0.018991 -0.578748
v 0.134089 0.163678 -0.453031
v 0.234025 0.072501 -0.516118
v 0.234385 -0.092468 -0.471985
v 0.234385 0.090201 -0.346268
v 0.134450 0.090044 -0.346040
v 0.134450 -0.092625 -0.471757
v 0.234385 -0.001133 -0.409127
v 0.134089 0.072344 -0.515889
v 0.034514 -0.001447 -0.408670
v 0.134810 -0.074924 -0.301907
v 0.231722 -0.014362 -0.575891
v 0.230408 0.254113 -0.965989
v 0.231722 0.159190 -0.456449
v 0.230408 0.340365 -0.888040
v 0.040297 -0.014663 -0.575453
v 0.038983 0.253811 -0.965551
v 0.040297 0.158889 -0.456011
v 0.038983 0.340064 -0.887603
vn 0.0028 -0.5669 0.8238
vn -1.0000 -0.0016 0.0023
vn -0.0028 0.5669 -0.8238
vn 1.0000 0.0016 -0.0023
vn -0.0000 -0.8238 -0.5669
vn -0.0000 0.8238 0.5669
vn 1.0000 0.0017 -0.0023
vn -1.0000 -0.0017 0.0023
vn -0.0027 0.6705 -0.7419
vn -0.0006 0.9221 0.3871
vt 0.125000 0.750000
vt 0.375000 1.000000
vt 0.375000 0.000000
vt 0.625000 1.000000
vt 0.875000 0.750000
vt 0.625000 0.000000
vt 0.125000 0.500000
vt 0.375000 0.250000
vt 0.875000 0.500000
vt 0.625000 0.250000
vt 0.375000 0.750000
vt 0.625000 0.750000
vt 0.375000 0.500000
vt 0.625000 0.500000
vt 0.125000 0.625000
vt 0.375000 0.125000
vt 0.500000 1.000000
vt 0.500000 0.000000
vt 0.875000 0.625000
vt 0.625000 0.125000
vt 0.500000 0.250000
vt 0.250000 0.500000
vt 0.375000 0.375000
vt 0.750000 0.500000
vt 0.625000 0.375000
vt 0.500000 0.500000
vt 0.375000 0.625000
vt 0.625000 0.625000
vt 0.500000 0.750000
vt 0.250000 0.750000
vt 0.375000 0.875000
vt 0.750000 0.750000
vt 0.625000 0.875000
vt 0.750000 0.625000
vt 0.250000 0.625000
vt 0.500000 0.875000
vt 0.500000 0.625000
vt 0.500000 0.375000
vt 0.500000 0.125000
vt 0.125000 0.750000
vt 0.375000 0.000000
vt 0.375000 1.000000
vt 0.625000 0.000000
vt 0.625000 1.000000
vt 0.875000 0.750000
vt 0.125000 0.500000
vt 0.375000 0.250000
vt 0.875000 0.500000
vt 0.625000 0.250000
vt 0.375000 0.750000
vt 0.625000 0.750000
vt 0.375000 0.500000
vt 0.625000 0.500000
s 0
usemtl Материал.006
f 26/39/1 11/20/1 4/10/1 12/21/1
f 25/38/2 14/25/2 8/14/2 15/26/2
f 24/37/3 17/28/3 6/12/3 18/29/3
f 23/36/4 20/33/4 2/4/4 10/17/4
f 22/35/5 16/27/5 5/11/5 19/30/5
f 21/34/6 11/19/6 2/5/6 20/32/6
f 17/28/6 21/34/6 20/32/6 6/12/6
f 8/14/6 14/24/6 21/34/6 17/28/6
f 14/24/6 4/9/6 11/19/6 21/34/6
f 9/15/5 22/35/5 19/30/5 1/1/5
f 3/7/5 13/22/5 22/35/5 9/15/5
f 13/22/5 7/13/5 16/27/5 22/35/5
f 19/31/4 23/36/4 10/17/4 1/2/4
f 5/11/4 18/29/4 23/36/4 19/31/4
f 18/29/4 6/12/4 20/33/4 23/36/4
f 16/27/3 24/37/3 18/29/3 5/11/3
f 7/13/3 15/26/3 24/37/3 16/27/3
f 15/26/3 8/14/3 17/28/3 24/37/3
f 13/23/2 25/38/2 15/26/2 7/13/2
f 3/8/2 12/21/2 25/38/2 13/23/2
f 12/21/2 4/10/2 14/25/2 25/38/2
f 9/16/1 26/39/1 12/21/1 3/8/1
f 1/3/1 10/18/1 26/39/1 9/16/1
f 10/18/1 2/6/1 11/20/1 26/39/1
f 29/46/1 33/52/1 31/50/1 27/40/1
usemtl Материал.007
f 27/41/7 28/43/7 30/49/7 29/47/7
f 33/52/8 34/53/8 32/51/8 31/50/8
f 31/50/5 32/51/5 28/44/5 27/42/5
f 34/53/9 30/48/9 28/45/9 32/51/9
usemtl Материал.008
f 29/47/10 30/49/10 34/53/10 33/52/10
