# Blender 3.4.1
# www.blender.org
mtllib untitled.mtl
o Куб
v -0.613900 -0.656524 0.613900
v -0.613900 -0.656524 -0.613900
v 0.613900 -0.656524 0.613900
v 0.613900 -0.656524 -0.613900
v -1.000000 1.000000 1.000000
v -1.000000 1.000000 -1.000000
v 1.000000 1.000000 -1.000000
v 1.000000 1.000000 1.000000
v -0.851657 0.862747 0.851657
v -0.851657 0.862747 -0.851657
v 0.851657 0.862747 -0.851657
v 0.851657 0.862747 0.851657
v -0.621327 -1.000000 0.621327
v -1.000000 -0.621327 1.000000
v -0.621327 -1.000000 -0.621327
v -1.000000 -0.621327 -1.000000
v 0.621327 -1.000000 0.621327
v 1.000000 -0.621327 1.000000
v 0.621327 -1.000000 -0.621327
v 1.000000 -0.621327 -1.000000
vn -0.0000 -0.0000 1.0000
vn 1.0000 -0.0000 -0.0000
vn -0.0000 -0.0000 -1.0000
vn -1.0000 -0.0000 -0.0000
vn -0.0000 1.0000 -0.0000
vn 0.6791 0.7340 -0.0000
vn -0.0000 0.7340 0.6791
vn -0.6791 0.7340 -0.0000
vn -0.0000 0.7340 -0.6791
vn 0.9880 0.1546 -0.0000
vn -0.0000 0.1546 0.9880
vn -0.9880 0.1546 -0.0000
vn -0.0000 0.1546 -0.9880
vn -0.7071 -0.7071 -0.0000
vn -0.0000 -0.7071 -0.7071
vn 0.7071 -0.7071 -0.0000
vn -0.0000 -0.7071 0.7071
vn -0.0000 -1.0000 -0.0000
vt 0.826737 0.701737
vt 0.826738 0.548262
vt 0.673263 0.701738
vt 0.673262 0.548263
vt 0.625000 1.000000
vt 0.625000 0.000000
vt 0.875000 0.750000
vt 0.625000 0.250000
vt 0.875000 0.500000
vt 0.625000 0.500000
vt 0.625000 0.750000
vt 0.856457 0.731457
vt 0.856457 0.518543
vt 0.643543 0.518543
vt 0.643543 0.731457
vt 0.172334 0.702666
vt 0.422334 1.000000
vt 0.422334 0.000000
vt 0.125000 0.750000
vt 0.172334 0.547334
vt 0.422334 0.250000
vt 0.125000 0.500000
vt 0.327666 0.702666
vt 0.422334 0.750000
vt 0.375000 0.750000
vt 0.327666 0.547334
vt 0.375000 0.500000
vt 0.422334 0.500000
s 0
usemtl Материал
f 18/24/1 8/11/1 5/5/1 14/17/1
f 20/28/2 7/10/2 8/11/2 18/24/2
f 16/21/3 6/8/3 7/10/3 20/28/3
f 14/18/4 5/6/4 6/8/4 16/21/4
f 4/4/5 2/2/5 1/1/5 3/3/5
f 9/12/6 10/13/6 6/9/6 5/7/6
f 10/13/7 11/14/7 7/10/7 6/9/7
f 11/14/8 12/15/8 8/11/8 7/10/8
f 12/15/9 9/12/9 5/7/9 8/11/9
f 1/1/10 2/2/10 10/13/10 9/12/10
f 2/2/11 4/4/11 11/14/11 10/13/11
f 4/4/12 3/3/12 12/15/12 11/14/12
f 3/3/13 1/1/13 9/12/13 12/15/13
f 15/20/14 13/16/14 14/19/14 16/22/14
f 19/26/15 15/20/15 16/22/15 20/27/15
f 17/23/16 19/26/16 20/28/16 18/24/16
f 13/16/17 17/23/17 18/25/17 14/19/17
f 15/20/18 19/26/18 17/23/18 13/16/18
o Плоскость
v -1.000000 0.469192 1.000000
v 1.000000 0.469192 1.000000
v -1.000000 0.469192 -1.000000
v 1.000000 0.469192 -1.000000
vn -0.0000 1.0000 -0.0000
vt 0.000000 0.000000
vt 1.000000 0.000000
vt 0.000000 1.000000
vt 1.000000 1.000000
s 0
usemtl Материал.001
f 21/29/19 22/30/19 24/32/19 23/31/19
